<svg width="30" height="30" viewBox="0 0 30 30" fill="none" xmlns="http://www.w3.org/2000/svg">
<path d="M24.1509 30C23.9166 30 23.6838 29.9225 23.4842 29.7711L15.941 24.0508L11.8952 27.3053C11.5779 27.5604 11.1689 27.6247 10.8005 27.4774C10.4325 27.3298 10.1531 26.989 10.0533 26.5665L8.02188 17.9597L0.763357 14.8569C0.306405 14.6614 0.00335265 14.1727 2.76305e-05 13.6257C-0.00329739 13.0788 0.293738 12.5854 0.748474 12.3831L28.348 0.105434C28.4733 0.0459577 28.6058 0.0116169 28.7394 0.00241223C28.7873 -0.000774009 28.8352 -0.000773912 28.8829 0.00223532C29.1597 0.0206447 29.4315 0.146678 29.6437 0.379274C29.6657 0.403348 29.6866 0.427953 29.7064 0.45362C29.8821 0.678073 29.9787 0.951735 29.9969 1.23053C30.0014 1.30063 30.0011 1.37161 29.9955 1.44259C29.9917 1.49322 29.9852 1.54367 29.976 1.59376L25.3174 28.9209C25.2425 29.3599 24.9752 29.7274 24.606 29.8986C24.4595 29.9665 24.3048 30 24.1509 30ZM16.6033 21.3446L23.3225 26.4399L26.9474 5.17634L13.8552 19.2606L16.5716 21.3207C16.5825 21.3283 16.593 21.3364 16.6033 21.3446ZM11.0098 20.2115L11.9095 24.0226L13.8478 22.4633L11.3097 20.5385C11.1917 20.4492 11.0907 20.3381 11.0098 20.2115ZM4.45492 13.5919L9.43897 15.7223C9.79601 15.8749 10.0655 16.2105 10.163 16.6236L10.7951 19.3017C10.8241 18.9928 10.9493 18.7021 11.1528 18.4831L23.6278 5.06305L4.45492 13.5919Z" fill="#F50049"/>
</svg>
